<svg xmlns="http://www.w3.org/2000/svg" viewBox="0 0 200 200">
  <defs>
    <linearGradient id="blueGradient" x1="0%" y1="0%" x2="100%" y2="100%">
      <stop offset="0%" style="stop-color:#4a90e2;stop-opacity:1" />
      <stop offset="100%" style="stop-color:#1e3a8a;stop-opacity:1" />
    </linearGradient>
  </defs>
  
  <!-- Background -->
  <rect width="200" height="200" fill="#ffffff"/>
  
  <!-- Neuron nodes -->
  <circle cx="100" cy="100" r="15" fill="url(#blueGradient)"/>
  <circle cx="40" cy="40" r="10" fill="url(#blueGradient)"/>
  <circle cx="160" cy="40" r="10" fill="url(#blueGradient)"/>
  <circle cx="40" cy="160" r="10" fill="url(#blueGradient)"/>
  <circle cx="160" cy="160" r="10" fill="url(#blueGradient)"/>
  <circle cx="70" cy="100" r="8" fill="url(#blueGradient)"/>
  <circle cx="130" cy="100" r="8" fill="url(#blueGradient)"/>
  <circle cx="100" cy="70" r="8" fill="url(#blueGradient)"/>
  <circle cx="100" cy="130" r="8" fill="url(#blueGradient)"/>
  
  <!-- Connections -->
  <line x1="100" y1="100" x2="40" y2="40" stroke="#4a90e2" stroke-width="2"/>
  <line x1="100" y1="100" x2="160" y2="40" stroke="#4a90e2" stroke-width="2"/>
  <line x1="100" y1="100" x2="40" y2="160" stroke="#4a90e2" stroke-width="2"/>
  <line x1="100" y1="100" x2="160" y2="160" stroke="#4a90e2" stroke-width="2"/>
  <line x1="100" y1="100" x2="70" y2="100" stroke="#4a90e2" stroke-width="2"/>
  <line x1="100" y1="100" x2="130" y2="100" stroke="#4a90e2" stroke-width="2"/>
  <line x1="100" y1="100" x2="100" y2="70" stroke="#4a90e2" stroke-width="2"/>
  <line x1="100" y1="100" x2="100" y2="130" stroke="#4a90e2" stroke-width="2"/>
  
  <!-- Pulse animations on connections -->
  <circle cx="100" cy="100" r="3" fill="white">
    <animate attributeName="cx" values="100;40" dur="1.5s" repeatCount="indefinite"/>
    <animate attributeName="cy" values="100;40" dur="1.5s" repeatCount="indefinite"/>
    <animate attributeName="opacity" values="0;1;0" dur="1.5s" repeatCount="indefinite"/>
  </circle>
  <circle cx="100" cy="100" r="3" fill="white">
    <animate attributeName="cx" values="100;160" dur="2s" repeatCount="indefinite"/>
    <animate attributeName="cy" values="100;40" dur="2s" repeatCount="indefinite"/>
    <animate attributeName="opacity" values="0;1;0" dur="2s" repeatCount="indefinite"/>
  </circle>
  <circle cx="100" cy="100" r="3" fill="white">
    <animate attributeName="cx" values="100;40" dur="2.5s" repeatCount="indefinite"/>
    <animate attributeName="cy" values="100;160" dur="2.5s" repeatCount="indefinite"/>
    <animate attributeName="opacity" values="0;1;0" dur="2.5s" repeatCount="indefinite"/>
  </circle>
</svg>
